# xmcd
#
# Track frame offsets: 
#        150
#        20374
#        34396
#        51942
#        70379
#        88252
#        100700
#        116728
#        128508
#        137910
#        162046
#        177885
#        188783
#        201738
#        212792
#        229822
#        247221
#        265737
#        280867
#        296120
#
# Disc length: 4164 seconds
#
# Revision: 2
# Processed by: cddbd v1.5.2PL0 Copyright (c) Steve Scherf et al.
# Submitted via: ExactAudioCopy v0.99pb4
#
DISCID=39104214
DTITLE=Various Artist - 100 Vlaamse Klassiekers Volume 2 - CD 2
DYEAR=2008
DGENRE=Chanson
TTITLE0=Nicole and Hugo - Pastorale
TTITLE1=Laura Lynn and Marva - Rode Rozen In De Sneeuw
TTITLE2=Dana Winner - Geef De Kinderen Een Wereld
TTITLE3=Opium - Een Vrouw
TTITLE4=De Waterlanders - Iedereen Doet (Wat Ie Moet)
TTITLE5=De Pop-Koning - Albert Rap
TTITLE6=K.I.A. - Zaterdag
TTITLE7=Yvan Heylen - De Werkmens
TTITLE8=Eddy Wally - Als Marktkramer Ben Ik Geboren
TTITLE9=De Championettes - Vlaamse Medley
TTITLE10=Rita Deneve - Dans De Hele Nacht
TTITLE11=Jo Leemans - Heel Mijn Hart
TTITLE12=La Esterella - Alle Moeders
TTITLE13=John Larry - Alleen
TTITLE14=Bob Benny - September Gouden Roos
TTITLE15=Jimmy Frey - Niemand Weet Hoeveel Ik Van Je Hou
TTITLE16=Sam Gooris - Laat Het Gras Maar Groeien
TTITLE17=Get Ready - Marjolein
TTITLE18=Mama's Jasje - Het Is Over
TTITLE19=Clouseau - Zie Me Graag
EXTD=YEAR: 2008
EXTT0=
EXTT1=
EXTT2=
EXTT3=
EXTT4=
EXTT5=
EXTT6=
EXTT7=
EXTT8=
EXTT9=
EXTT10=
EXTT11=
EXTT12=
EXTT13=
EXTT14=
EXTT15=
EXTT16=
EXTT17=
EXTT18=
EXTT19=
PLAYORDER=
